<?xml version="1.0" encoding="UTF-8"?>
<svg width="16px" height="16px" viewBox="0 0 16 16" version="1.1" xmlns="http://www.w3.org/2000/svg" xmlns:xlink="http://www.w3.org/1999/xlink">
    <title>icon/success</title>
    <g id="Page-1" stroke="none" stroke-width="1" fill="none" fill-rule="evenodd">
        <g id="Faucet" transform="translate(-663.000000, -48.000000)" fill="#F37565">
            <g id="note/info-copy-4" transform="translate(649.000000, 38.000000)">
                <g id="Padding-Group-2">
                    <g id="icon/error" transform="translate(12.000000, 8.000000)">
                        <path d="M13.0740625,6.94 C12.7975,6.66390625 12.3484375,6.66390625 12.071875,6.94 L9.99296875,9.01890625 L7.99703125,7.02296875 C7.7284375,6.75390625 7.2925,6.75390625 7.0234375,7.02296875 C6.75484375,7.2915625 6.75484375,7.7275 7.0234375,7.9965625 L9.01984375,9.9925 L6.94046875,12.071875 C6.664375,12.3484375 6.664375,12.7970312 6.94046875,13.073125 C7.2175,13.3501563 7.66609375,13.3501563 7.94265625,13.073125 L10.0215625,10.9946875 L12.0292188,13.0014062 C12.2978125,13.2704688 12.73375,13.2704688 13.0023438,13.0014062 C13.2709375,12.7328125 13.2709375,12.296875 13.0023438,12.0282812 L10.9951563,10.0210938 L13.0740625,7.9421875 C13.3501563,7.665625 13.3501563,7.21703125 13.0740625,6.94 M10,17.5 C5.858125,17.5 2.5,14.141875 2.5,10 C2.5,5.85765625 5.858125,2.5 10,2.5 C14.1423438,2.5 17.5,5.85765625 17.5,10 C17.5,14.141875 14.1423438,17.5 10,17.5" id="icon_error"></path>
                    </g>
                </g>
            </g>
        </g>
    </g>
</svg>