<?xml version="1.0" encoding="UTF-8"?>
<svg width="16px" height="16px" viewBox="0 0 16 16" version="1.1" xmlns="http://www.w3.org/2000/svg" xmlns:xlink="http://www.w3.org/1999/xlink">
    <title>icon/success</title>
    <g id="Page-1" stroke="none" stroke-width="1" fill="none" fill-rule="evenodd">
        <g id="Faucet" transform="translate(-662.000000, -91.000000)" fill="#56CB8F">
            <g id="note/info-copy-5" transform="translate(648.000000, 81.000000)">
                <g id="Padding-Group-2">
                    <g id="icon/success" transform="translate(12.000000, 8.000000)">
                        <g id="success" transform="translate(2.500000, 2.500000)">
                            <path d="M7.5,0 C9.62053571,0.0558035714 11.3867187,0.789620536 12.7985491,2.20145089 C14.2103795,3.61328125 14.9441964,5.37946429 15,7.5 C14.9441964,9.62053571 14.2103795,11.3867187 12.7985491,12.7985491 C11.3867187,14.2103795 9.62053571,14.9441964 7.5,15 C5.37946429,14.9441964 3.61328125,14.2103795 2.20145089,12.7985491 C0.789620536,11.3867187 0.0558035714,9.62053571 0,7.5 C0.0558035714,5.37946429 0.789620536,3.61328125 2.20145089,2.20145089 C3.61328125,0.789620536 5.37946429,0.0558035714 7.5,0 Z M6.5625,8.97321429 L4.90513393,7.31584821 C4.77120536,7.19308036 4.61774554,7.13169643 4.44475446,7.13169643 C4.27176339,7.13169643 4.12109375,7.19587054 3.99274554,7.32421875 C3.86439732,7.45256696 3.80022321,7.60044643 3.80022321,7.76785714 C3.80022321,7.93526786 3.86160714,8.0859375 3.984375,8.21986607 L6.11049107,10.3459821 C6.23325893,10.46875 6.38392857,10.5301339 6.5625,10.5301339 C6.74107143,10.5301339 6.89174107,10.46875 7.01450893,10.3459821 L11.4174107,5.94308036 C11.5848214,5.77566964 11.6378348,5.57198661 11.5764509,5.33203125 C11.515067,5.09207589 11.3643973,4.94140625 11.124442,4.88002232 C10.8844866,4.81863839 10.6808036,4.87165179 10.5133929,5.0390625 L6.5625,8.97321429 Z" id="形状"></path>
                        </g>
                    </g>
                </g>
            </g>
        </g>
    </g>
</svg>